<svg  viewBox="0 0 1436 291" fill="none" xmlns="http://www.w3.org/2000/svg">
    <path fill-rule="evenodd" clip-rule="evenodd" d="M0 251.95L21.54 221.956C43.08 191.962 87.3567 131.974 130.437 143.971C173.517 155.969 217.793 239.952 260.873 245.951C305.15 251.95 348.23 179.964 391.31 131.974C435.587 83.9833 478.667 59.988 521.747 83.9833C566.023 107.978 609.103 179.964 652.183 227.955C696.46 275.945 739.54 299.94 783.817 287.943C826.897 275.945 869.977 227.955 914.253 209.958C957.333 191.962 1000.41 203.959 1044.69 209.958C1087.77 215.957 1130.85 215.957 1175.13 197.961C1218.21 179.964 1262.48 143.971 1305.56 119.976C1348.64 95.9809 1392.92 83.9833 1414.46 77.9845L1436 71.9856V0H1414.46C1392.92 0 1348.64 0 1305.56 0C1262.48 0 1218.21 0 1175.13 0C1130.85 0 1087.77 0 1044.69 0C1000.41 0 957.333 0 914.253 0C869.977 0 826.897 0 783.817 0C739.54 0 696.46 0 652.183 0C609.103 0 566.023 0 521.747 0C478.667 0 435.587 0 391.31 0C348.23 0 305.15 0 260.873 0C217.793 0 173.517 0 130.437 0C87.3567 0 43.08 0 21.54 0H0V251.95Z" fill="#0099FF"/>
</svg>
