<svg viewBox="0 0 1436 302" fill="none" xmlns="http://www.w3.org/2000/svg">
<path fill-rule="evenodd" clip-rule="evenodd" d="M0 262.852L11.9667 235.471C22.7367 208.091 45.4733 153.33 68.21 153.33C90.9467 153.33 113.683 208.091 136.42 197.139C159.157 186.186 181.893 109.521 204.63 76.665C227.367 43.8086 251.3 54.7607 274.037 82.1411C296.773 109.521 319.51 153.33 342.247 197.139C364.983 240.947 387.72 284.756 410.457 251.899C433.193 219.043 455.93 109.521 478.667 76.665C501.403 43.8086 524.14 87.6172 546.877 120.474C569.613 153.33 592.35 175.234 615.087 169.758C637.823 164.282 660.56 131.426 683.297 109.521C706.033 87.6172 729.967 76.665 752.703 87.6172C775.44 98.5693 798.177 131.426 820.913 147.854C843.65 164.282 866.387 164.282 889.123 175.234C911.86 186.186 934.597 208.091 957.333 202.615C980.07 197.139 1002.81 164.282 1025.54 142.378C1048.28 120.474 1071.02 109.521 1093.75 120.474C1116.49 131.426 1139.23 164.282 1161.96 186.186C1184.7 208.091 1208.63 219.043 1231.37 240.947C1254.11 262.852 1276.84 295.708 1299.58 301.184C1322.32 306.66 1345.05 284.756 1367.79 229.995C1390.53 175.234 1413.26 87.6172 1424.03 43.8086L1436 0H1424.03C1413.26 0 1390.53 0 1367.79 0C1345.05 0 1322.32 0 1299.58 0C1276.84 0 1254.11 0 1231.37 0C1208.63 0 1184.7 0 1161.96 0C1139.23 0 1116.49 0 1093.75 0C1071.02 0 1048.28 0 1025.54 0C1002.81 0 980.07 0 957.333 0C934.597 0 911.86 0 889.123 0C866.387 0 843.65 0 820.913 0C798.177 0 775.44 0 752.703 0C729.967 0 706.033 0 683.297 0C660.56 0 637.823 0 615.087 0C592.35 0 569.613 0 546.877 0C524.14 0 501.403 0 478.667 0C455.93 0 433.193 0 410.457 0C387.72 0 364.983 0 342.247 0C319.51 0 296.773 0 274.037 0C251.3 0 227.367 0 204.63 0C181.893 0 159.157 0 136.42 0C113.683 0 90.9467 0 68.21 0C45.4733 0 22.7367 0 11.9667 0H0V262.852Z" fill="#0099FF"/>
</svg>
